<svg version="1" xmlns="http://www.w3.org/2000/svg" width="958.667" height="958.667" viewBox="0 0 719.000000 719.000000"><path d="M347.9 70.1c-12.4 1.7-21.2 5.8-59.4 27.9-33 19-76.4 44.1-114 65.8-7.1 4.1-14.4 8.3-16.2 9.3-13.9 7.9-25.9 14.9-31.8 18.8-17.3 11.1-28.3 26.4-33.5 46.6-2.1 7.9-2.1 9.6-2.2 127.5 0 65.7.3 121.1.7 123 3.2 17.8 11.7 34 23.4 44.7 4.5 4.2 14.6 11.3 16 11.3.6 0 1.1.4 1.1 1 0 .5.4 1 1 1 .5 0 4.7 2.2 9.2 4.9 4.6 2.7 9.9 5.7 11.8 6.8 3.1 1.8 92.6 53.4 117.5 67.8 40.7 23.6 54.7 31.4 59.5 33.3 5.5 2.2 16.7 4.9 20.5 5.1 7.7.2 16 .1 17.4-.3.9-.3 3.3-.7 5.4-1 9.3-1.4 19.8-6.7 63.9-32.2 53.3-30.8 87.5-50.5 96.8-55.8 8.8-5 6.6-3.7 34-19.7 13.5-7.8 27.1-16.2 30.3-18.8 13.7-11 24.4-29.4 27.3-47.1 1-6.2 1.1-234.8.1-243.4-1.6-14.4-8.4-29.2-18.9-41.1-7.1-8.1-10.6-10.6-33-23.6-10.6-6.2-24.5-14.2-30.8-17.9-27.8-16.2-54.2-31.4-61-35.3-7-3.9-11.8-6.7-26.5-15.2-8.2-4.9-16.6-9.7-18.5-10.8-1.9-1.1-12.5-7.1-23.5-13.5-11-6.3-22.2-12.5-25-13.7-11.4-5-28.4-7.2-41.6-5.4zm21.1 57.8c5.7 2.9 8.2 4.3 20 11.3 5.2 3 11.5 6.7 14 8.1 2.5 1.4 8.6 4.9 13.5 7.7 5 2.9 14.9 8.7 22 12.8 7.2 4.1 16 9.2 19.7 11.3 3.7 2.1 8.2 4.7 10 5.8 1.8 1 7.4 4.2 12.3 7.1 5 2.9 11 6.4 13.5 7.8 2.5 1.4 12.6 7.3 22.5 13 9.9 5.8 20 11.6 22.4 13 2.5 1.4 6.8 3.8 9.5 5.5 2.8 1.6 7.1 4.1 9.6 5.5 6 3.3 8.8 5.9 11.3 10.7 2.1 4 2.1 4 2.1 119.5 0 109.3-.1 115.7-1.8 119.2-1 2-2.8 4.7-4.1 6-1.8 1.8-29.6 18.5-44 26.4-2.1 1.2-29 16.7-76.5 44.2-15.7 9-29.8 17.2-31.5 18.2-1.6.9-13.1 7.5-25.4 14.6l-22.5 12.9h-6.5c-6.2 0-7.2-.3-17-6-5.8-3.3-12.1-6.9-14-8-2-1.1-11.7-6.7-21.6-12.4-9.9-5.8-23.4-13.5-30-17.3-6.6-3.8-12.7-7.3-13.5-7.8-.8-.5-5.1-3-9.5-5.6-4.4-2.6-9.9-5.8-12.1-7-22.1-12.3-86.4-50.1-88.2-51.7-1.3-1.2-3.3-3.9-4.4-6-1.9-3.8-1.9-6.6-2-119.1 0-113 0-115.4 2-119.8 1.1-2.5 3.5-5.7 5.3-7 1.9-1.4 15.1-9.3 29.4-17.5 14.3-8.3 30.5-17.6 36-20.8 5.5-3.2 21.5-12.4 35.5-20.5s31.5-18.2 38.9-22.5c7.4-4.2 14.9-8.5 16.5-9.5 1.7-.9 11.3-6.4 21.3-12.3 10.1-5.8 19.5-11 21-11.6 4.1-1.5 11.1-.7 16.3 1.8z"/><path d="M381 361.8v197l11.3-6c6.1-3.3 14.8-7.9 19.2-10.3 4.4-2.3 10.4-5.5 13.3-7l5.2-2.7V391l2.3-.1c3.7-.2 11.3-.6 29.7-1.3 9.6-.4 21.2-.9 25.8-1.1l8.2-.4v52.4c0 28.9.3 52.5.7 52.5 2.1 0 35.2-20.2 38.4-23.5 2.2-2.2 5.4-6.9 7.2-10.5l3.2-6.5v-181l-2.7-5.8c-3.7-7.9-11.5-15.3-21.8-20.6-4.7-2.4-12.2-6.4-16.7-8.8l-8.3-4.4-.2 52.8-.3 52.8-3-.2c-1.6 0-11.3-.4-21.5-.8s-21.2-.9-24.5-1c-3.3-.2-8.4-.4-11.2-.4l-5.3-.1.5-71.8.4-71.8-5.2-2.8c-2.9-1.5-13.5-7.1-23.7-12.3-10.2-5.3-19.1-10-19.7-10.5-1-.8-1.3 38.5-1.3 196zM327.1 172.5c-5.1 3-9.7 5.5-10.1 5.5-.5 0-1 .3-1.2.7-.3.8-.7 1.1-15.5 9.5-8.5 4.8-9.3 5.5-9.4 8.3 0 1.6 0 44.8-.1 95.8 0 51-.3 92.6-.5 92.3-.4-.4-13.3-26.5-28.8-58.3-4.9-10.1-9.2-18-9.5-17.5-.4.4-2.2 4.7-4 9.7-1.8 4.9-3.9 10.3-4.6 12-.6 1.6-4 10.4-7.4 19.5-3.3 9.1-7 18.5-8 21s-2.5 6.3-3.4 8.5l-1.5 4-.1-4.5c-.1-4.7-.7-68.9-1.2-117.8-.2-15.5-.4-28.2-.5-28.2-.1 0-5.7 3.1-12.4 7-6.8 3.8-12.4 7-12.6 7-.1 0-2.6 1.5-5.5 3.4-9.2 5.9-14.4 12.7-17.2 22.7-1.5 5.1-1.6 14.7-1.4 92l.3 86.4 3.1 6.5c1.7 3.6 5 8.4 7.3 10.7 3.7 3.7 37.8 25 38.6 24.1.1-.2 4.4-12.2 9.4-26.8 5.1-14.6 11.1-32.1 13.5-39 2.4-6.9 4.9-14.3 5.6-16.4 1.5-4.8 1.9-4.2 5.5 8.9 1.5 5.5 3.7 13.4 5 17.5 1.3 4.1 3.3 10.9 4.4 15 1.1 4.1 6.7 23.6 12.4 43.4l10.4 35.8 4.9 2.8c11.5 6.3 38.1 21.4 41.1 23.1l3.1 1.9V363c0-107.8-.1-196-.2-196 0 0-4.3 2.5-9.5 5.5z"/></svg>